<svg width="16" height="16" viewBox="0 0 16 16" fill="none" xmlns="http://www.w3.org/2000/svg">
<path d="M14.0003 8.66632V12.0003C14.0003 12.6477 13.9988 13.0662 13.9573 13.3743C13.9185 13.6631 13.8559 13.7541 13.805 13.805C13.7541 13.8559 13.6631 13.9185 13.3743 13.9573C13.0662 13.9988 12.6477 14.0003 12.0003 14.0003H4.00031C3.35308 14.0003 2.93446 13.9987 2.62628 13.9573C2.33798 13.9186 2.2466 13.8559 2.19562 13.805C2.14472 13.7541 2.08214 13.663 2.04327 13.3743C2.00182 13.0662 2.00031 12.6477 2.00031 12.0003V8.66632H14.0003ZM4.00031 4.00031H12.0003C12.6477 4.00031 13.0662 4.00182 13.3743 4.04327C13.663 4.08214 13.7541 4.14472 13.805 4.19562C13.8559 4.2466 13.9186 4.33798 13.9573 4.62628C13.978 4.78034 13.9889 4.96192 13.9944 5.18585L14.0003 6.00031H2.00031C2.00031 5.35302 2.00186 4.93447 2.04327 4.62628C2.08214 4.33737 2.1447 4.24654 2.19562 4.19562C2.24654 4.1447 2.33737 4.08214 2.62628 4.04327C2.93447 4.00186 3.35302 4.00031 4.00031 4.00031Z" fill="#1195FF" stroke="#1195FF" stroke-width="1.33333"/>
<path d="M4.66663 2V4ZM11.3333 2V4Z" fill="#1195FF"/>
<path d="M4.66663 2V4M11.3333 2V4" stroke="#1195FF" stroke-width="2.66667" stroke-linecap="round"/>
</svg>
