<svg width="16" height="16" viewBox="0 0 16 16" fill="none" xmlns="http://www.w3.org/2000/svg">
<path d="M1.33334 5.99999C1.33334 4.74266 1.33334 4.11466 1.72401 3.72399C2.11468 3.33333 2.74268 3.33333 4.00001 3.33333H12C13.2573 3.33333 13.8853 3.33333 14.276 3.72399C14.6667 4.11466 14.6667 4.74266 14.6667 5.99999C14.6667 6.31399 14.6667 6.47133 14.5693 6.56933C14.4713 6.66666 14.3133 6.66666 14 6.66666H2.00001C1.68601 6.66666 1.52868 6.66666 1.43068 6.56933C1.33334 6.47133 1.33334 6.31333 1.33334 5.99999ZM1.33334 12C1.33334 13.2573 1.33334 13.8853 1.72401 14.276C2.11468 14.6667 2.74268 14.6667 4.00001 14.6667H12C13.2573 14.6667 13.8853 14.6667 14.276 14.276C14.6667 13.8853 14.6667 13.2573 14.6667 12V8.66666C14.6667 8.35266 14.6667 8.19533 14.5693 8.09733C14.4713 7.99999 14.3133 8 14 8H2.00001C1.68601 8 1.52868 7.99999 1.43068 8.09733C1.33334 8.19533 1.33334 8.35333 1.33334 8.66666V12Z" fill="#3F3F3F"/>
<path d="M4.66669 2V4M11.3334 2V4" stroke="#3F3F3F" stroke-width="2.66667" stroke-linecap="round"/>
</svg>
