<svg width="16" height="16" viewBox="0 0 16 16" fill="none" xmlns="http://www.w3.org/2000/svg">
<path d="M1.33331 5.99998C1.33331 4.74265 1.33331 4.11465 1.72398 3.72398C2.11465 3.33331 2.74265 3.33331 3.99998 3.33331H12C13.2573 3.33331 13.8853 3.33331 14.276 3.72398C14.6666 4.11465 14.6666 4.74265 14.6666 5.99998C14.6666 6.31398 14.6666 6.47131 14.5693 6.56931C14.4713 6.66665 14.3133 6.66665 14 6.66665H1.99998C1.68598 6.66665 1.52865 6.66665 1.43065 6.56931C1.33331 6.47131 1.33331 6.31331 1.33331 5.99998ZM1.33331 12C1.33331 13.2573 1.33331 13.8853 1.72398 14.276C2.11465 14.6666 2.74265 14.6666 3.99998 14.6666H12C13.2573 14.6666 13.8853 14.6666 14.276 14.276C14.6666 13.8853 14.6666 13.2573 14.6666 12V8.66665C14.6666 8.35265 14.6666 8.19531 14.5693 8.09731C14.4713 7.99998 14.3133 7.99998 14 7.99998H1.99998C1.68598 7.99998 1.52865 7.99998 1.43065 8.09731C1.33331 8.19531 1.33331 8.35331 1.33331 8.66665V12Z" fill="#5D7285"/>
<path d="M4.66663 2V4M11.3333 2V4" stroke="#5D7285" stroke-width="2.66667" stroke-linecap="round"/>
</svg>
