<svg width="32" height="32" viewBox="0 0 32 32" fill="none" xmlns="http://www.w3.org/2000/svg">
<path d="M1.33331 16.0333C1.33331 15.5889 1.43331 15.1778 1.63331 14.8C1.83331 14.4222 2.11109 14.1111 2.46665 13.8667L9.13331 9.1C9.37776 8.92222 9.62798 8.79422 9.88398 8.716C10.14 8.63778 10.4009 8.59911 10.6666 8.6C10.9324 8.60089 11.1938 8.64 11.4506 8.71733C11.7075 8.79467 11.9573 8.92222 12.2 9.1L18.8666 13.8667C19.2222 14.1111 19.5 14.4222 19.7 14.8C19.9 15.1778 20 15.5889 20 16.0333V25.3333C20 26.0667 19.7391 26.6947 19.2173 27.2173C18.6955 27.74 18.0675 28.0009 17.3333 28H16C15.2666 28 14.6391 27.7391 14.1173 27.2173C13.5955 26.6956 13.3342 26.0676 13.3333 25.3333V22C13.3333 21.4444 13.1391 20.9724 12.7506 20.584C12.3622 20.1956 11.8898 20.0009 11.3333 20H9.99998C9.44442 20 8.97242 20.1947 8.58398 20.584C8.19554 20.9733 8.00087 21.4453 7.99998 22V25.3333C7.99998 26.0667 7.73909 26.6947 7.21731 27.2173C6.69554 27.74 6.06754 28.0009 5.33331 28H3.99998C3.26665 28 2.63909 27.7391 2.11731 27.2173C1.59554 26.6956 1.3342 26.0676 1.33331 25.3333V16.0333ZM30.6666 6.66667V25.3333C30.6666 26.0667 30.4058 26.6947 29.884 27.2173C29.3622 27.74 28.7342 28.0009 28 28H24C23.6222 28 23.3058 27.872 23.0506 27.616C22.7955 27.36 22.6675 27.0436 22.6666 26.6667V14.7C22.6666 14.2556 22.572 13.8444 22.3826 13.4667C22.1933 13.0889 21.9213 12.7778 21.5666 12.5333L14.6 7.53333C14.3111 7.31111 14.0778 7.04444 13.9 6.73333C13.7222 6.42222 13.6333 6.11111 13.6333 5.8C13.6333 5.24444 13.8111 4.80578 14.1666 4.484C14.5222 4.16222 15 4.00089 15.6 4H28C28.7333 4 29.3613 4.26133 29.884 4.784C30.4066 5.30667 30.6675 5.93422 30.6666 6.66667ZM23.3333 12H24.6666C24.8444 12 25 11.9333 25.1333 11.8C25.2666 11.6667 25.3333 11.5111 25.3333 11.3333V10C25.3333 9.82222 25.2666 9.66667 25.1333 9.53333C25 9.4 24.8444 9.33333 24.6666 9.33333H23.3333C23.1555 9.33333 23 9.4 22.8666 9.53333C22.7333 9.66667 22.6666 9.82222 22.6666 10V11.3333C22.6666 11.5111 22.7333 11.6667 22.8666 11.8C23 11.9333 23.1555 12 23.3333 12ZM23.3333 17.3333H24.6666C24.8444 17.3333 25 17.2667 25.1333 17.1333C25.2666 17 25.3333 16.8444 25.3333 16.6667V15.3333C25.3333 15.1556 25.2666 15 25.1333 14.8667C25 14.7333 24.8444 14.6667 24.6666 14.6667H23.3333C23.1555 14.6667 23 14.7333 22.8666 14.8667C22.7333 15 22.6666 15.1556 22.6666 15.3333V16.6667C22.6666 16.8444 22.7333 17 22.8666 17.1333C23 17.2667 23.1555 17.3333 23.3333 17.3333ZM23.3333 22.6667H24.6666C24.8444 22.6667 25 22.6 25.1333 22.4667C25.2666 22.3333 25.3333 22.1778 25.3333 22V20.6667C25.3333 20.4889 25.2666 20.3333 25.1333 20.2C25 20.0667 24.8444 20 24.6666 20H23.3333C23.1555 20 23 20.0667 22.8666 20.2C22.7333 20.3333 22.6666 20.4889 22.6666 20.6667V22C22.6666 22.1778 22.7333 22.3333 22.8666 22.4667C23 22.6 23.1555 22.6667 23.3333 22.6667Z" fill="#1195FF"/>
</svg>
