<svg width="48" height="28" viewBox="0 0 48 28" fill="none" xmlns="http://www.w3.org/2000/svg">
<g clip-path="url(#clip0_237_94)">
<path d="M17.0052 21.9155V20.7904C17.0052 20.359 16.7412 20.0778 16.2888 20.0778C16.0626 20.0778 15.8176 20.1528 15.6479 20.3966C15.516 20.1903 15.3275 20.0778 15.0448 20.0778C14.8562 20.0778 14.6678 20.134 14.5169 20.3403V20.1153H14.1211V21.9155H14.5169V20.9216C14.5169 20.6029 14.6866 20.4528 14.9506 20.4528C15.2143 20.4528 15.3464 20.6216 15.3464 20.9216V21.9155H15.7422V20.9216C15.7422 20.6029 15.9306 20.4528 16.1757 20.4528C16.4397 20.4528 16.5715 20.6216 16.5715 20.9216V21.9155H17.0052ZM22.8673 20.1153H22.2265V19.5714H21.8307V20.1153H21.4725V20.4715H21.8306V21.2967C21.8306 21.7093 22.0003 21.9531 22.4527 21.9531C22.6224 21.9531 22.8108 21.8968 22.9428 21.8218L22.8296 21.4842C22.7166 21.5592 22.5847 21.578 22.4904 21.578C22.3019 21.578 22.2265 21.4655 22.2265 21.2779V20.4715H22.8673V20.1153ZM26.2227 20.0777C25.9965 20.0777 25.8457 20.1903 25.7514 20.3403V20.1153H25.3556V21.9155H25.7514V20.9029C25.7514 20.6029 25.8833 20.4341 26.1284 20.4341C26.2038 20.4341 26.298 20.4529 26.3734 20.4716L26.4865 20.0965C26.4111 20.0778 26.298 20.0778 26.2227 20.0778M21.1521 20.2654C20.9635 20.1341 20.6996 20.0778 20.4169 20.0778C19.9645 20.0778 19.663 20.3029 19.663 20.6592C19.663 20.9593 19.8892 21.128 20.285 21.1843L20.4735 21.2031C20.6808 21.2405 20.7939 21.2968 20.7939 21.3906C20.7939 21.5218 20.6431 21.6156 20.3792 21.6156C20.1152 21.6156 19.908 21.5218 19.776 21.4281L19.5875 21.7281C19.7949 21.8781 20.0776 21.9531 20.3603 21.9531C20.8881 21.9531 21.1898 21.7094 21.1898 21.3718C21.1898 21.053 20.9447 20.8842 20.5677 20.828L20.3792 20.8092C20.2095 20.7904 20.0776 20.753 20.0776 20.6405C20.0776 20.5092 20.2095 20.4342 20.4169 20.4342C20.6431 20.4342 20.8693 20.5279 20.9824 20.5842L21.1521 20.2654ZM31.6703 20.0778C31.444 20.0778 31.2932 20.1903 31.1989 20.3404V20.1153H30.8031V21.9156H31.1989V20.903C31.1989 20.603 31.3309 20.4342 31.5759 20.4342C31.6514 20.4342 31.7457 20.453 31.821 20.4717L31.9341 20.0966C31.8587 20.0778 31.7457 20.0778 31.6703 20.0778ZM26.6185 21.0155C26.6185 21.5593 26.9954 21.9531 27.5799 21.9531C27.8437 21.9531 28.0322 21.8969 28.2207 21.7469L28.0322 21.4281C27.8814 21.5406 27.7306 21.5968 27.561 21.5968C27.2405 21.5968 27.0143 21.3718 27.0143 21.0155C27.0143 20.678 27.2405 20.4529 27.561 20.4342C27.7306 20.4342 27.8814 20.4904 28.0322 20.603L28.2207 20.2841C28.0322 20.1341 27.8437 20.0778 27.5799 20.0778C26.9954 20.0778 26.6185 20.4717 26.6185 21.0155ZM30.2754 21.0155V20.1153H29.8795V20.3404C29.7475 20.1716 29.5591 20.0778 29.314 20.0778C28.8051 20.0778 28.4092 20.4717 28.4092 21.0155C28.4092 21.5593 28.8051 21.9531 29.314 21.9531C29.5779 21.9531 29.7664 21.8594 29.8795 21.6906V21.9156H30.2754V21.0155ZM28.8239 21.0155C28.8239 20.6967 29.0312 20.4342 29.3705 20.4342C29.691 20.4342 29.9172 20.678 29.9172 21.0155C29.9172 21.3343 29.691 21.5968 29.3705 21.5968C29.0312 21.578 28.8239 21.3343 28.8239 21.0155ZM24.0927 20.0778C23.5648 20.0778 23.1878 20.4529 23.1878 21.0155C23.1878 21.5781 23.5647 21.9531 24.1115 21.9531C24.3753 21.9531 24.6393 21.8781 24.8466 21.7094L24.6581 21.4281C24.5073 21.5406 24.3188 21.6156 24.1303 21.6156C23.8853 21.6156 23.6402 21.5031 23.5836 21.1842H24.922V21.0343C24.9409 20.4529 24.6017 20.0778 24.0927 20.0778ZM24.0926 20.4154C24.3375 20.4154 24.5073 20.5655 24.5449 20.8468H23.6024C23.6401 20.603 23.8098 20.4154 24.0926 20.4154ZM33.9133 21.0155V19.4027H33.5174V20.3404C33.3854 20.1716 33.197 20.0778 32.9519 20.0778C32.443 20.0778 32.0471 20.4717 32.0471 21.0155C32.0471 21.5593 32.443 21.9531 32.9519 21.9531C33.2159 21.9531 33.4043 21.8594 33.5174 21.6906V21.9156H33.9133V21.0155ZM32.4619 21.0155C32.4619 20.6967 32.6691 20.4342 33.0085 20.4342C33.3289 20.4342 33.5551 20.678 33.5551 21.0155C33.5551 21.3343 33.3289 21.5968 33.0085 21.5968C32.6691 21.578 32.4619 21.3343 32.4619 21.0155ZM19.2293 21.0155V20.1153H18.8334V20.3404C18.7015 20.1716 18.513 20.0778 18.2679 20.0778C17.759 20.0778 17.3631 20.4717 17.3631 21.0155C17.3631 21.5593 17.759 21.9531 18.2679 21.9531C18.5319 21.9531 18.7203 21.8594 18.8334 21.6906V21.9156H19.2293V21.0155ZM17.759 21.0155C17.759 20.6967 17.9664 20.4342 18.3056 20.4342C18.6261 20.4342 18.8523 20.678 18.8523 21.0155C18.8523 21.3343 18.6261 21.5968 18.3056 21.5968C17.9664 21.578 17.759 21.3343 17.759 21.0155Z" fill="black"/>
<path d="M21.0205 6.44397H26.9582V17.0584H21.0205V6.44397Z" fill="#FF5F00"/>
<path d="M21.3975 11.7512C21.3975 9.59461 22.4153 7.68173 23.9798 6.44397C22.8301 5.54383 21.3787 5 19.7953 5C16.044 5 13.0093 8.01925 13.0093 11.7512C13.0093 15.4832 16.044 18.5024 19.7952 18.5024C21.3786 18.5024 22.83 17.9586 23.9798 17.0584C22.4153 15.8394 21.3975 13.9078 21.3975 11.7512Z" fill="#EB001B"/>
<path d="M34.9691 11.7512C34.9691 15.4831 31.9343 18.5024 28.1831 18.5024C26.5998 18.5024 25.1484 17.9586 23.9985 17.0584C25.5819 15.8207 26.581 13.9078 26.581 11.7512C26.581 9.59461 25.563 7.68173 23.9985 6.44397C25.1483 5.54383 26.5998 5 28.1831 5C31.9343 5 34.9691 8.03805 34.9691 11.7512Z" fill="#F79E1B"/>
</g>
<rect x="0.5" y="0.5" width="47" height="27" rx="2.5" stroke="#DEDEDE"/>
<defs>
<clipPath id="clip0_237_94">
<rect width="22" height="17" fill="white" transform="translate(13 5)"/>
</clipPath>
</defs>
</svg>
