<svg width="15" height="15" viewBox="0 0 15 15" fill="none" xmlns="http://www.w3.org/2000/svg">
<g clip-path="url(#clip0_232_62)">
<path d="M13.125 14.0625V3.75H10.3125V0.9375H1.875V14.0625H0V15H6.5625V12.1875H8.4375V15H15V14.0625H13.125ZM5.625 10.3125H3.75V8.4375H5.625V10.3125ZM5.625 7.5H3.75V5.625H5.625V7.5ZM5.625 4.6875H3.75V2.8125H5.625V4.6875ZM8.4375 10.3125H6.5625V8.4375H8.4375V10.3125ZM8.4375 7.5H6.5625V5.625H8.4375V7.5ZM8.4375 4.6875H6.5625V2.8125H8.4375V4.6875ZM12.1875 10.3125H10.3125V8.4375H12.1875V10.3125ZM12.1875 7.5H10.3125V5.625H12.1875V7.5Z" fill="#5D7285"/>
</g>
<defs>
<clipPath id="clip0_232_62">
<rect width="15" height="15" fill="white"/>
</clipPath>
</defs>
</svg>
