<svg width="16" height="16" viewBox="0 0 16 16" fill="none" xmlns="http://www.w3.org/2000/svg">
<path d="M6.58527 7.99997L6.66632 8.04684V14H2.66632C2.4897 13.9999 2.32055 13.9295 2.19562 13.8047C2.07059 13.6796 2.00031 13.5098 2.00031 13.333V7.99997H6.58527ZM7.55109 1.42868C7.94878 1.27429 8.42308 1.30847 8.79132 1.5195C9.11047 1.71529 9.35643 2.04337 9.40265 2.54099L9.40363 2.5488L9.4046 2.55563L9.47784 3.19626L9.57941 4.08298L10.4007 3.73337L10.9808 3.48727L10.9944 3.48141C11.0123 3.47335 11.0304 3.46621 11.0482 3.45895C10.7766 3.56503 10.5374 3.76042 10.3812 4.0361C9.81235 5.03179 10.6963 6.29501 11.8636 5.98044L11.8646 5.98141C11.8711 5.97982 11.8776 5.97722 11.8841 5.97556C11.8869 5.97475 11.89 5.97443 11.8929 5.9736L11.8919 5.97263C13.0191 5.67479 13.1861 4.22122 12.2933 3.60251L12.2034 3.54489L12.1985 3.54196L12.0794 3.48141C11.7559 3.33695 11.3931 3.33115 11.0726 3.44919C12.4423 2.9173 13.5629 4.72814 12.4075 5.71286L11.6907 6.32419L12.5052 6.79684L14.3323 7.85641L14.3353 7.85837C14.6108 8.0162 14.7309 8.34513 14.6312 8.64352L14.5745 8.76852L13.9124 9.91306C13.909 9.9135 13.9046 9.91458 13.8997 9.91403C13.8938 9.91335 13.8887 9.91123 13.8841 9.90915L9.28937 7.25583L9.95734 6.09958L10.2903 5.52243L9.7132 5.18942L8.55988 4.52243L7.98273 4.18845L7.64874 4.76657L6.98175 5.92184L2.36749 3.25681C2.36573 3.25562 2.36502 3.25443 2.36456 3.25388L2.36359 3.25192L3.03058 2.10056L3.03156 2.09763C3.19199 1.81785 3.52124 1.7 3.81476 1.79977L3.93781 1.85544L3.94073 1.85837L5.77472 2.9111L6.60577 3.38864L6.74347 2.56052C6.65356 3.42087 7.43631 4.23855 8.40363 3.97946L8.4046 3.98141C9.59348 3.69111 9.74384 2.13011 8.74347 1.54489L8.40656 2.12009L8.74347 1.54391L8.61456 1.47946C8.0502 1.23298 7.34901 1.3944 6.98077 1.92868L6.91437 2.0361C6.86189 2.12797 6.82106 2.22172 6.7923 2.31638C6.90977 1.84254 7.20481 1.5632 7.55109 1.42868ZM9.33331 14V9.58688L12.9134 11.6513V11.6504C13.2191 11.8314 13.5551 11.9199 13.9134 11.9199C13.9426 11.9199 13.9715 11.9173 14.0003 11.916V13.333C14.0003 13.7048 13.7051 14 13.3333 14H9.33331Z" fill="#1195FF" stroke="#1195FF" stroke-width="1.33333"/>
</svg>
