<svg width="16" height="16" viewBox="0 0 16 16" fill="none" xmlns="http://www.w3.org/2000/svg">
<path d="M14.6667 7.28L12.84 6.22C14.6 4.72 12.8333 1.92 10.72 2.87333L10.14 3.12L10.0667 2.48C10 1.76 9.62668 1.24667 9.13334 0.946668C8.04001 0.311334 6.37334 0.746668 6.10668 2.33333L4.27334 1.28C3.63334 0.906668 2.82001 1.12667 2.45334 1.76667L1.78668 2.92C1.60001 3.24 1.71334 3.64667 2.03334 3.83333L7.22668 6.83333L8.22668 5.1L9.38001 5.76667L8.38001 7.5L13.5733 10.5C13.8933 10.6667 14.3067 10.5733 14.4867 10.2533L15.1533 9.1C15.52 8.46 15.3067 7.64667 14.6667 7.28ZM8.24668 3.33333C7.66668 3.5 7.20001 2.88 7.49334 2.36667C7.66668 2.04667 8.08668 1.94 8.40668 2.12C8.92001 2.42 8.82001 3.19333 8.24668 3.33333ZM11.7067 5.33333C11.1333 5.5 10.6667 4.88 10.96 4.36667C11.14 4.04667 11.5533 3.94 11.8667 4.12C12.38 4.42 12.28 5.19333 11.7067 5.33333ZM13.9133 11.2533C14.1867 11.2533 14.4467 11.16 14.6667 11V13.3333C14.6667 14.0733 14.0733 14.6667 13.3333 14.6667H2.66668C2.31305 14.6667 1.97392 14.5262 1.72387 14.2761C1.47382 14.0261 1.33334 13.687 1.33334 13.3333V7.33333H6.76668L7.33334 7.66667V13.3333H8.66668V8.43333L13.2467 11.0733C13.4467 11.1933 13.6667 11.2533 13.9133 11.2533Z" fill="#3F3F3F"/>
</svg>
