<svg width="16" height="16" viewBox="0 0 16 16" fill="none" xmlns="http://www.w3.org/2000/svg">
<path d="M14.6666 7.28L12.84 6.22C14.6 4.72 12.8333 1.92 10.72 2.87333L10.14 3.12L10.0666 2.48C9.99998 1.76 9.62665 1.24667 9.13331 0.946668C8.03998 0.311334 6.37331 0.746668 6.10665 2.33333L4.27331 1.28C3.63331 0.906668 2.81998 1.12667 2.45331 1.76667L1.78665 2.92C1.59998 3.24 1.71331 3.64667 2.03331 3.83333L7.22665 6.83333L8.22665 5.1L9.37998 5.76667L8.37998 7.5L13.5733 10.5C13.8933 10.6667 14.3066 10.5733 14.4866 10.2533L15.1533 9.1C15.52 8.46 15.3066 7.64667 14.6666 7.28ZM8.24665 3.33333C7.66665 3.5 7.19998 2.88 7.49331 2.36667C7.66665 2.04667 8.08665 1.94 8.40665 2.12C8.91998 2.42 8.81998 3.19333 8.24665 3.33333ZM11.7066 5.33333C11.1333 5.5 10.6666 4.88 10.96 4.36667C11.14 4.04667 11.5533 3.94 11.8666 4.12C12.38 4.42 12.28 5.19333 11.7066 5.33333ZM13.9133 11.2533C14.1866 11.2533 14.4466 11.16 14.6666 11V13.3333C14.6666 14.0733 14.0733 14.6667 13.3333 14.6667H2.66665C2.31302 14.6667 1.97389 14.5262 1.72384 14.2761C1.47379 14.0261 1.33331 13.687 1.33331 13.3333V7.33333H6.76665L7.33331 7.66667V13.3333H8.66665V8.43333L13.2466 11.0733C13.4466 11.1933 13.6666 11.2533 13.9133 11.2533Z" fill="#5D7285"/>
</svg>
