<svg width="16" height="16" viewBox="0 0 16 16" fill="none" xmlns="http://www.w3.org/2000/svg">
<path d="M3.50001 3.33334C2.92537 3.33334 2.37427 3.56162 1.96795 3.96795C1.56162 4.37427 1.33334 4.92537 1.33334 5.50001V6.33334H14.6667V5.50001C14.6667 5.21548 14.6106 4.93374 14.5017 4.67086C14.3929 4.40799 14.2333 4.16914 14.0321 3.96795C13.8309 3.76675 13.592 3.60716 13.3292 3.49827C13.0663 3.38939 12.7845 3.33334 12.5 3.33334H3.50001ZM14.6667 7.33334H1.33334V10.5C1.33334 11.0746 1.56162 11.6257 1.96795 12.0321C2.37427 12.4384 2.92537 12.6667 3.50001 12.6667H12.5C12.7845 12.6667 13.0663 12.6106 13.3292 12.5017C13.592 12.3929 13.8309 12.2333 14.0321 12.0321C14.2333 11.8309 14.3929 11.592 14.5017 11.3292C14.6106 11.0663 14.6667 10.7845 14.6667 10.5V7.33334ZM10.5 9.66668H12.1667C12.2993 9.66668 12.4265 9.71936 12.5202 9.81312C12.614 9.90689 12.6667 10.0341 12.6667 10.1667C12.6667 10.2993 12.614 10.4265 12.5202 10.5202C12.4265 10.614 12.2993 10.6667 12.1667 10.6667H10.5C10.3674 10.6667 10.2402 10.614 10.1465 10.5202C10.0527 10.4265 10 10.2993 10 10.1667C10 10.0341 10.0527 9.90689 10.1465 9.81312C10.2402 9.71936 10.3674 9.66668 10.5 9.66668Z" fill="#3F3F3F"/>
</svg>
