<svg width="16" height="16" viewBox="0 0 16 16" fill="none" xmlns="http://www.w3.org/2000/svg">
<path d="M3.49998 3.33333C2.92534 3.33333 2.37424 3.5616 1.96791 3.96793C1.56159 4.37426 1.33331 4.92536 1.33331 5.49999V6.33333H14.6666V5.49999C14.6666 5.21546 14.6106 4.93372 14.5017 4.67085C14.3928 4.40798 14.2332 4.16912 14.032 3.96793C13.8309 3.76674 13.592 3.60714 13.3291 3.49826C13.0663 3.38937 12.7845 3.33333 12.5 3.33333H3.49998ZM14.6666 7.33333H1.33331V10.5C1.33331 11.0746 1.56159 11.6257 1.96791 12.0321C2.37424 12.4384 2.92534 12.6667 3.49998 12.6667H12.5C12.7845 12.6667 13.0663 12.6106 13.3291 12.5017C13.592 12.3928 13.8309 12.2333 14.032 12.0321C14.2332 11.8309 14.3928 11.592 14.5017 11.3291C14.6106 11.0663 14.6666 10.7845 14.6666 10.5V7.33333ZM10.5 9.66666H12.1666C12.2993 9.66666 12.4264 9.71934 12.5202 9.81311C12.614 9.90688 12.6666 10.0341 12.6666 10.1667C12.6666 10.2993 12.614 10.4264 12.5202 10.5202C12.4264 10.614 12.2993 10.6667 12.1666 10.6667H10.5C10.3674 10.6667 10.2402 10.614 10.1464 10.5202C10.0527 10.4264 9.99998 10.2993 9.99998 10.1667C9.99998 10.0341 10.0527 9.90688 10.1464 9.81311C10.2402 9.71934 10.3674 9.66666 10.5 9.66666Z" fill="#5D7285"/>
</svg>
