<svg width="16" height="16" viewBox="0 0 16 16" fill="none" xmlns="http://www.w3.org/2000/svg">
<path d="M14.3333 7.66634V10.5003L14.3245 10.68C14.3069 10.859 14.2627 11.0347 14.1937 11.2015C14.1015 11.4239 13.9664 11.626 13.7962 11.7962C13.626 11.9665 13.4239 12.1015 13.2015 12.1937C12.9792 12.2858 12.7409 12.3333 12.5003 12.3333H3.50031C3.01407 12.3333 2.54725 12.14 2.20343 11.7962C1.85979 11.4525 1.66641 10.9864 1.66632 10.5003V7.66634H14.3333ZM10.5003 9.33333C10.2793 9.33333 10.0667 9.42119 9.91046 9.57747C9.75436 9.73366 9.66641 9.94552 9.66632 10.1663C9.66632 10.3874 9.75418 10.5999 9.91046 10.7562C10.0667 10.9125 10.2793 11.0003 10.5003 11.0003H12.1663C12.3873 11.0003 12.5999 10.9125 12.7562 10.7562C12.9124 10.5999 13.0003 10.3873 13.0003 10.1663C13.0002 9.94552 12.9123 9.73366 12.7562 9.57747C12.5999 9.42119 12.3873 9.33333 12.1663 9.33333H10.5003ZM3.50031 3.66634H12.5003C12.7409 3.66638 12.9792 3.71394 13.2015 3.80598C13.4238 3.89809 13.626 4.03328 13.7962 4.20345C13.9664 4.37363 14.1015 4.57583 14.1937 4.79817C14.2858 5.0206 14.3333 5.25956 14.3333 5.50032V6.00032H1.66632V5.50032L1.67609 5.31868C1.71779 4.89905 1.90263 4.50425 2.20343 4.20345C2.50423 3.90264 2.89903 3.7178 3.31866 3.6761L3.50031 3.66634Z" fill="#1195FF" stroke="#1195FF" stroke-width="0.666667"/>
</svg>
