<svg width="32" height="32" viewBox="0 0 32 32" fill="none" xmlns="http://www.w3.org/2000/svg">
<path d="M5.33333 25.3333C4.976 25.3333 4.66444 25.2004 4.39867 24.9347C4.13289 24.6689 4 24.3573 4 24V18.256H10V19.5893H11.3333V18.256H20.6667V19.5893H22V18.256H28V24C28 24.3573 27.8671 24.6689 27.6013 24.9347C27.3356 25.2004 27.024 25.3333 26.6667 25.3333H5.33333ZM4.23333 16.9227L7.23067 10.112C7.32844 9.86311 7.484 9.67111 7.69733 9.536C7.91067 9.40089 8.14489 9.33333 8.4 9.33333H10.9227V7.79467C10.9227 7.43733 11.056 7.12622 11.3227 6.86133C11.5884 6.59467 11.8996 6.46133 12.256 6.46133H19.744C20.1013 6.46133 20.4124 6.59467 20.6773 6.86133C20.944 7.12622 21.0773 7.43733 21.0773 7.79467V9.33333H23.6C23.8551 9.33333 24.0893 9.40089 24.3027 9.536C24.516 9.67111 24.6716 9.86356 24.7693 10.1133L27.7667 16.9227H22V15.5893H20.6667V16.9227H11.3333V15.5893H10V16.9227H4.23333ZM12.256 9.33333H19.744V7.79467H12.256V9.33333Z" fill="#5D7285"/>
</svg>
