<svg width="20" height="16" viewBox="0 0 20 16" fill="none" xmlns="http://www.w3.org/2000/svg">
<path d="M19.0781 10.6656C19.1594 10.225 19.1594 9.77499 19.0781 9.33436L19.8844 8.86874C19.9781 8.81561 20.0187 8.70624 19.9875 8.60311C19.7781 7.92811 19.4188 7.31561 18.95 6.80936C18.8781 6.73124 18.7625 6.71249 18.6688 6.76561L17.8625 7.23124C17.5219 6.94061 17.1313 6.71561 16.7094 6.56561V5.63436C16.7094 5.52811 16.6344 5.43436 16.5312 5.41249C15.8344 5.25624 15.125 5.26249 14.4625 5.41249C14.3594 5.43436 14.2844 5.52811 14.2844 5.63436V6.56561C13.8625 6.71561 13.4719 6.94061 13.1313 7.23124L12.325 6.76561C12.2344 6.71249 12.1156 6.73124 12.0437 6.80936C11.575 7.31561 11.2156 7.92811 11.0063 8.60311C10.975 8.70624 11.0188 8.81561 11.1094 8.86874L11.9156 9.33436C11.8344 9.77499 11.8344 10.225 11.9156 10.6656L11.1094 11.1312C11.0156 11.1844 10.975 11.2937 11.0063 11.3969C11.2156 12.0719 11.575 12.6812 12.0437 13.1906C12.1156 13.2687 12.2312 13.2875 12.325 13.2344L13.1313 12.7687C13.4719 13.0594 13.8625 13.2844 14.2844 13.4344V14.3656C14.2844 14.4719 14.3594 14.5656 14.4625 14.5875C15.1594 14.7437 15.8687 14.7375 16.5312 14.5875C16.6344 14.5656 16.7094 14.4719 16.7094 14.3656V13.4344C17.1313 13.2844 17.5219 13.0594 17.8625 12.7687L18.6688 13.2344C18.7594 13.2875 18.8781 13.2687 18.95 13.1906C19.4188 12.6844 19.7781 12.0719 19.9875 11.3969C20.0187 11.2937 19.975 11.1844 19.8844 11.1312L19.0781 10.6656ZM15.5 11.5156C14.6625 11.5156 13.9844 10.8344 13.9844 9.99999C13.9844 9.16561 14.6656 8.48436 15.5 8.48436C16.3344 8.48436 17.0156 9.16561 17.0156 9.99999C17.0156 10.8344 16.3375 11.5156 15.5 11.5156ZM3 6.99999C4.10313 6.99999 5 6.10311 5 4.99999C5 3.89686 4.10313 2.99999 3 2.99999C1.89688 2.99999 1 3.89686 1 4.99999C1 6.10311 1.89688 6.99999 3 6.99999ZM10 7.99999C10.0594 7.99999 10.1156 7.98436 10.175 7.98124C10.4344 7.30311 10.8156 6.66561 11.3094 6.13124C11.5406 5.88124 11.8687 5.73749 12.2125 5.73749C12.4281 5.73749 12.6406 5.79374 12.825 5.90311L13.0719 6.04686C13.0969 6.03124 13.1219 6.01874 13.1469 6.00311C13.3656 5.54686 13.4969 5.04061 13.4969 4.50311C13.4969 2.56874 11.9312 1.00311 9.99687 1.00311C8.0625 1.00311 6.5 2.56561 6.5 4.49999C6.5 6.43436 8.06563 7.99999 10 7.99999ZM13.2875 14.0781C13.2156 14.0406 13.1438 13.9969 13.075 13.9562C12.8187 14.1062 12.5969 14.2625 12.2156 14.2625C11.875 14.2625 11.5469 14.1187 11.3125 13.8687C10.7406 13.25 10.3031 12.4969 10.0562 11.6937C9.72187 10.6156 10.8344 10.1406 10.8625 10.1219C10.8594 10.0406 10.8594 9.95936 10.8625 9.87811L10.6156 9.73436C10.4969 9.66561 10.3969 9.57811 10.3094 9.48124C10.2063 9.48749 10.1062 9.49999 10.0031 9.49999C9.23438 9.49999 8.51562 9.31249 7.8625 8.99999H7.60313C5.6125 8.99999 4 10.6125 4 12.6V13.5C4 14.3281 4.67188 15 5.5 15H13.4812C13.3656 14.8125 13.2875 14.6 13.2875 14.3656V14.0781ZM5.40938 8.58124C5.04688 8.22186 4.55 7.99999 4 7.99999H2C0.896875 7.99999 0 8.89686 0 9.99999V11C0 11.5531 0.446875 12 1 12H3.05938C3.25625 10.5187 4.15 9.27186 5.40938 8.58124Z" fill="#034D82"/>
</svg>
