<svg width="16" height="16" viewBox="0 0 16 16" fill="none" xmlns="http://www.w3.org/2000/svg">
<path d="M5.6 6.40001C6.23652 6.40001 6.84697 6.14715 7.29705 5.69706C7.74714 5.24697 8 4.63653 8 4.00001C8 3.36349 7.74714 2.75304 7.29705 2.30295C6.84697 1.85286 6.23652 1.60001 5.6 1.60001C4.96348 1.60001 4.35303 1.85286 3.90294 2.30295C3.45285 2.75304 3.2 3.36349 3.2 4.00001C3.2 4.63653 3.45285 5.24697 3.90294 5.69706C4.35303 6.14715 4.96348 6.40001 5.6 6.40001ZM11.6 7.20001C12.1304 7.20001 12.6391 6.98929 13.0142 6.61422C13.3893 6.23915 13.6 5.73044 13.6 5.20001C13.6 4.66957 13.3893 4.16087 13.0142 3.78579C12.6391 3.41072 12.1304 3.20001 11.6 3.20001C11.0696 3.20001 10.5609 3.41072 10.1858 3.78579C9.81071 4.16087 9.6 4.66957 9.6 5.20001C9.6 5.73044 9.81071 6.23915 10.1858 6.61422C10.5609 6.98929 11.0696 7.20001 11.6 7.20001ZM1.292 13.1424C1.13487 13.0449 1.00867 12.9048 0.928083 12.7384C0.847495 12.572 0.815838 12.3861 0.836796 12.2024C0.984281 11.0433 1.5494 9.97766 2.42625 9.2053C3.30309 8.43295 4.4315 8.00685 5.6 8.00685C6.7685 8.00685 7.8969 8.43295 8.77375 9.2053C9.6506 9.97766 10.2157 11.0433 10.3632 12.2024C10.4096 12.576 10.2256 12.9384 9.9072 13.1416C8.62185 13.9654 7.1267 14.4023 5.6 14.4C4.0731 14.4027 2.57766 13.9661 1.292 13.1424ZM11.6 12.8H11.5152C11.5712 12.5624 11.5856 12.3112 11.5536 12.0536C11.4169 10.9538 10.977 9.91377 10.2832 9.04961C10.7297 8.87369 11.2068 8.78881 11.6866 8.79996C12.1663 8.81111 12.639 8.91807 13.0768 9.11455C13.5146 9.31102 13.9088 9.59305 14.236 9.94404C14.5633 10.295 14.817 10.7079 14.9824 11.1584C15.0329 11.3022 15.0318 11.4591 14.9793 11.6022C14.9267 11.7452 14.826 11.8655 14.6944 11.9424C13.7605 12.5052 12.6904 12.8018 11.6 12.8Z" fill="#3F3F3F"/>
</svg>
