<svg width="20" height="16" viewBox="0 0 20 16" fill="none" xmlns="http://www.w3.org/2000/svg">
<path d="M7.60352 9.03143H7.85547C8.51051 9.34381 9.23161 9.5314 10.0029 9.53143C10.1025 9.53143 10.2017 9.51922 10.2979 9.51288C10.362 9.5825 10.4316 9.64869 10.5117 9.70526L10.5996 9.76093L10.8311 9.89569C10.8288 9.96471 10.8288 10.0337 10.8311 10.1027L10.792 10.1232C10.759 10.1404 10.7135 10.1649 10.6611 10.1974C10.5566 10.2624 10.4231 10.359 10.3008 10.4894C10.086 10.7186 9.90538 11.053 9.97852 11.5031L10.0264 11.7033C10.2436 12.4099 10.6074 13.0779 11.0801 13.6506L11.2891 13.8898H11.29C11.5302 14.146 11.8664 14.2941 12.2158 14.2941C12.599 14.2941 12.8268 14.1387 13.0752 13.9924C13.1331 14.0267 13.1947 14.0622 13.2559 14.0949V14.3654C13.2559 14.5876 13.3261 14.7892 13.4287 14.9689H5.5C4.6892 14.9689 4.03136 14.311 4.03125 13.5002V12.5998C4.03136 10.6297 5.6302 9.03143 7.60352 9.03143ZM2 8.03143H4C4.5264 8.03143 5.00236 8.2387 5.35645 8.57538C4.11638 9.27047 3.23659 10.5044 3.0332 11.9689H1C0.464199 11.9689 0.0313553 11.536 0.03125 11.0002V10.0002C0.03125 8.91432 0.914134 8.03143 2 8.03143ZM15.5 8.45331C14.6484 8.45331 13.9531 9.14855 13.9531 10.0002C13.9532 10.8517 14.6453 11.5471 15.5 11.5471C16.3547 11.5471 17.0468 10.8517 17.0469 10.0002C17.0469 9.14855 16.3516 8.45331 15.5 8.45331ZM9.99707 1.03436C11.9141 1.03447 13.4658 2.58606 13.4658 4.50311C13.4658 5.03207 13.3366 5.5304 13.1221 5.98065C13.1128 5.98621 13.1036 5.99271 13.0938 5.99823C13.0868 6.00211 13.0795 6.00573 13.0723 6.00995L12.8408 5.87616C12.6516 5.76393 12.4337 5.70631 12.2129 5.70624C11.9046 5.70624 11.608 5.81884 11.3799 6.01874L11.2861 6.10956C10.7937 6.64247 10.4129 7.27742 10.1523 7.95233C10.1283 7.95461 10.1049 7.95787 10.083 7.96112C10.0541 7.96541 10.0272 7.96893 10 7.96893C8.08295 7.96893 6.53136 6.41721 6.53125 4.50018C6.53125 2.58307 8.07995 1.03436 9.99707 1.03436ZM3 3.03143C4.08587 3.03143 4.96875 3.91432 4.96875 5.00018C4.96864 6.08596 4.0858 6.96893 3 6.96893C1.9142 6.96893 1.03136 6.08596 1.03125 5.00018C1.03125 3.91432 1.91413 3.03143 3 3.03143ZM14.3154 13.4123L14.2949 13.4045C13.8767 13.2558 13.489 13.0334 13.1514 12.7453L13.1348 12.7307L13.1152 12.7414L12.3096 13.2072C12.2487 13.2417 12.1772 13.2412 12.1191 13.2101L12.0664 13.1691C11.6591 12.7264 11.335 12.2077 11.1211 11.6359L11.0361 11.3879C11.0157 11.3203 11.0304 11.2502 11.0732 11.2004L11.125 11.1584L11.9316 10.6926L11.9502 10.6818L11.9463 10.6603C11.8657 10.2235 11.8657 9.7769 11.9463 9.34003L11.9502 9.31854L11.9316 9.30682L11.125 8.84198C11.0663 8.80754 11.0301 8.74542 11.0273 8.67889L11.0361 8.61249C11.2181 8.02569 11.5142 7.48622 11.8975 7.02362L12.0664 6.83026C12.113 6.77965 12.1826 6.75825 12.2471 6.76971L12.3096 6.79218V6.79315L13.1152 7.258L13.1348 7.26971L13.1514 7.25507C13.4891 6.96693 13.8766 6.74364 14.2949 6.59491L14.3154 6.58807V5.63397C14.3156 5.56516 14.3525 5.50278 14.4082 5.46796L14.4688 5.44354L14.4697 5.44257C15.0455 5.31225 15.657 5.29195 16.2646 5.39276L16.5244 5.44257V5.44354C16.6127 5.46227 16.6775 5.54238 16.6777 5.63397V6.58807L16.6992 6.59491C17.1174 6.74361 17.5042 6.96707 17.8418 7.25507L17.8594 7.26971L17.8779 7.258L18.6846 6.79315C18.7452 6.75886 18.8161 6.75862 18.874 6.78925L18.9268 6.83026C19.3341 7.27021 19.659 7.79111 19.873 8.36346L19.958 8.61249C19.9782 8.67966 19.9633 8.74928 19.9209 8.79901L19.8691 8.84198L19.0625 9.30682L19.043 9.31854L19.0479 9.34003C19.1284 9.77688 19.1284 10.2235 19.0479 10.6603L19.043 10.6818L19.0625 10.6926L19.8682 11.1574V11.1584C19.9267 11.1927 19.9628 11.2542 19.9658 11.3205L19.958 11.3879C19.7761 11.9744 19.4797 12.5133 19.0967 12.9758L18.9268 13.1691C18.8801 13.2199 18.8107 13.2423 18.7461 13.2307L18.6846 13.2072L17.8779 12.7414L17.8594 12.7307L17.8418 12.7453C17.5043 13.0332 17.1172 13.2558 16.6992 13.4045L16.6777 13.4123V14.3654C16.6777 14.4343 16.6416 14.4975 16.5859 14.5324L16.5244 14.5568C15.9487 14.6872 15.3371 14.7084 14.7295 14.6076L14.4697 14.5568H14.4688C14.3804 14.538 14.3154 14.4571 14.3154 14.3654V13.4123Z" fill="#1195FF" stroke="#1195FF" stroke-width="0.0625"/>
</svg>
