<svg width="16" height="16" viewBox="0 0 16 16" fill="none" xmlns="http://www.w3.org/2000/svg">
<path d="M5.60004 8.80704C6.57383 8.80705 7.51382 9.1624 8.24457 9.80606C8.92971 10.4096 9.38676 11.2275 9.54242 12.1234L9.56976 12.3031C9.57334 12.3374 9.56221 12.3851 9.52484 12.4272L9.47699 12.4672L9.47504 12.4682C8.39109 13.1628 7.14139 13.552 5.85785 13.5961L5.60101 13.6H5.59906C4.22562 13.6024 2.87953 13.2101 1.72308 12.4691H1.72406L1.71332 12.4623L1.67621 12.4311C1.66506 12.4188 1.65521 12.4051 1.64789 12.39C1.63368 12.3607 1.62801 12.3277 1.63129 12.2953C1.75578 11.3324 2.22678 10.4479 2.95551 9.80606C3.64048 9.20274 4.5092 8.8524 5.41742 8.81094L5.60004 8.80704ZM11.6684 9.60001C12.0414 9.60873 12.4091 9.69139 12.7495 9.84415C13.09 9.99696 13.3963 10.2167 13.6508 10.4897C13.8754 10.7305 14.0525 11.0101 14.1801 11.3129C13.6117 11.6384 12.9898 11.8532 12.3452 11.9457C12.2415 11.1216 11.9878 10.3276 11.6 9.60098C11.6227 9.60096 11.6457 9.59948 11.6684 9.60001ZM11.6 4.0004C11.9183 4.00041 12.2236 4.12693 12.4487 4.35196C12.6734 4.57688 12.8001 4.88164 12.8002 5.19962C12.8002 5.51777 12.6736 5.82323 12.4487 6.04825C12.2236 6.27328 11.9183 6.3998 11.6 6.39981C11.2818 6.39981 10.9764 6.27329 10.7514 6.04825C10.5265 5.82322 10.3998 5.51779 10.3998 5.19962C10.3999 4.88163 10.5266 4.57688 10.7514 4.35196C10.9484 4.15494 11.207 4.03345 11.4819 4.00626L11.6 4.0004ZM5.60004 2.39981C6.02424 2.39982 6.43087 2.56868 6.7309 2.86856C7.03095 3.16862 7.19965 3.57605 7.19965 4.0004C7.19954 4.4246 7.03086 4.83129 6.7309 5.13126C6.43086 5.4312 6.02429 5.6 5.60004 5.60001L5.44183 5.59219C5.07556 5.55582 4.73075 5.3938 4.4682 5.13126C4.16841 4.83132 4.00053 4.42447 4.00043 4.0004L4.00824 3.84219C4.04454 3.47589 4.20568 3.13116 4.4682 2.86856C4.73075 2.60601 5.07556 2.44399 5.44183 2.40762L5.60004 2.39981Z" fill="#1195FF" stroke="#1195FF" stroke-width="1.6"/>
</svg>
