<svg width="48" height="28" viewBox="0 0 48 28" fill="none" xmlns="http://www.w3.org/2000/svg">
<rect x="0.5" y="0.5" width="47" height="27" rx="2.5" stroke="#DEDEDE"/>
<g clip-path="url(#clip0_237_93)">
<path d="M24.1012 11.5026C24.0812 13.0288 25.504 13.8804 26.5758 14.3868C27.677 14.9063 28.0468 15.2395 28.0425 15.7042C28.0343 16.4152 27.1641 16.729 26.3498 16.7412C24.9292 16.7625 24.1032 16.3693 23.4466 16.0719L22.9348 18.3937C23.5936 18.6881 24.8136 18.9448 26.0787 18.9561C29.0482 18.9561 30.991 17.5348 31.0015 15.3312C31.0131 12.5346 27.0118 12.3798 27.0392 11.1298C27.0486 10.7507 27.4216 10.3462 28.239 10.2434C28.6436 10.1914 29.7605 10.1517 31.0268 10.7171L31.5238 8.47067C30.8428 8.23026 29.9676 8.00006 28.8779 8.00006C26.0829 8.00006 24.117 9.44066 24.1012 11.5026ZM36.2995 8.19355C35.7572 8.19355 35.3003 8.50022 35.0963 8.97084L30.8544 18.7911H33.8218L34.4123 17.2088H38.0384L38.381 18.7911H40.9964L38.7141 8.19355H36.2995ZM36.7146 11.0563L37.571 15.0358H35.2256L36.7146 11.0563ZM20.5034 8.19368L18.1643 18.7909H20.992L23.33 8.19342L20.5034 8.19368ZM16.3203 8.19368L13.3771 15.4066L12.1865 9.27354C12.0468 8.58889 11.4951 8.19355 10.8825 8.19355H6.07129L6.00391 8.50128C6.99162 8.70909 8.11384 9.04426 8.79374 9.40289C9.20982 9.62196 9.32847 9.81347 9.46515 10.334L11.7201 18.7911H14.7083L19.2896 8.19355L16.3203 8.19368Z" fill="url(#paint0_linear_237_93)"/>
</g>
<defs>
<linearGradient id="paint0_linear_237_93" x1="1614.75" y1="40.9338" x2="1645.5" y2="-1084.32" gradientUnits="userSpaceOnUse">
<stop stop-color="#222357"/>
<stop offset="1" stop-color="#254AA5"/>
</linearGradient>
<clipPath id="clip0_237_93">
<rect width="35" height="11" fill="white" transform="translate(6 8)"/>
</clipPath>
</defs>
</svg>
