<svg width="16" height="16" viewBox="0 0 16 16" fill="none" xmlns="http://www.w3.org/2000/svg">
<mask id="path-1-inside-1_232_78" fill="white">
<path fill-rule="evenodd" clip-rule="evenodd" d="M13.6066 6.57334C13.5678 6.57154 13.5289 6.57087 13.49 6.57134H11.8666C10.5386 6.57134 9.40131 7.62534 9.40131 9.00001C9.40131 10.3747 10.5386 11.4287 11.8673 11.4287H13.4893C13.5302 11.4291 13.5691 11.4282 13.606 11.426C13.88 11.4082 14.1382 11.2916 14.3327 11.0977C14.5272 10.9038 14.6447 10.646 14.6633 10.372C14.666 10.3327 14.666 10.2907 14.666 10.252V7.74801C14.666 7.70934 14.666 7.66734 14.6633 7.62801C14.6447 7.35415 14.5273 7.09637 14.333 6.90252C14.1386 6.70867 13.8805 6.59194 13.6066 6.57401M11.7246 9.64801C12.0666 9.64801 12.3446 9.35868 12.3446 9.00068C12.3446 8.64268 12.0666 8.35334 11.7246 8.35334C11.3826 8.35334 11.1053 8.64268 11.1053 9.00068C11.1053 9.35868 11.382 9.64801 11.7246 9.64801Z"/>
</mask>
<path fill-rule="evenodd" clip-rule="evenodd" d="M13.6066 6.57334C13.5678 6.57154 13.5289 6.57087 13.49 6.57134H11.8666C10.5386 6.57134 9.40131 7.62534 9.40131 9.00001C9.40131 10.3747 10.5386 11.4287 11.8673 11.4287H13.4893C13.5302 11.4291 13.5691 11.4282 13.606 11.426C13.88 11.4082 14.1382 11.2916 14.3327 11.0977C14.5272 10.9038 14.6447 10.646 14.6633 10.372C14.666 10.3327 14.666 10.2907 14.666 10.252V7.74801C14.666 7.70934 14.666 7.66734 14.6633 7.62801C14.6447 7.35415 14.5273 7.09637 14.333 6.90252C14.1386 6.70867 13.8805 6.59194 13.6066 6.57401M11.7246 9.64801C12.0666 9.64801 12.3446 9.35868 12.3446 9.00068C12.3446 8.64268 12.0666 8.35334 11.7246 8.35334C11.3826 8.35334 11.1053 8.64268 11.1053 9.00068C11.1053 9.35868 11.382 9.64801 11.7246 9.64801Z" fill="#1195FF"/>
<path d="M13.49 6.57134V7.90468H13.498L13.506 7.90458L13.49 6.57134ZM13.4893 11.4287L13.5038 10.0954L13.4966 10.0953H13.4893V11.4287ZM13.606 11.426L13.6861 12.7569L13.6923 12.7565L13.606 11.426ZM14.6633 10.372L15.9936 10.4625L15.9936 10.4622L14.6633 10.372ZM14.6633 7.62801L15.9936 7.53782L15.9936 7.53753L14.6633 7.62801ZM13.6066 6.57334L13.6684 5.24144C13.6036 5.23844 13.5388 5.23733 13.4739 5.23811L13.49 6.57134L13.506 7.90458C13.519 7.90442 13.532 7.90465 13.5449 7.90525L13.6066 6.57334ZM13.49 6.57134V5.23801H11.8666V6.57134V7.90468H13.49V6.57134ZM11.8666 6.57134V5.23801C9.84519 5.23801 8.06797 6.84675 8.06797 9.00001H9.40131H10.7346C10.7346 8.40394 11.2321 7.90468 11.8666 7.90468V6.57134ZM9.40131 9.00001H8.06797C8.06797 11.1535 9.84543 12.762 11.8673 12.762V11.4287V10.0953C11.2318 10.0953 10.7346 9.59585 10.7346 9.00001H9.40131ZM11.8673 11.4287V12.762H13.4893V11.4287V10.0953H11.8673V11.4287ZM13.4893 11.4287L13.4748 12.7619C13.544 12.7627 13.6146 12.7612 13.6861 12.7569L13.606 11.426L13.5258 10.0951C13.5235 10.0952 13.5164 10.0956 13.5038 10.0954L13.4893 11.4287ZM13.606 11.426L13.6923 12.7565C14.2887 12.7178 14.8508 12.4639 15.274 12.042L14.3327 11.0977L13.3914 10.1534C13.4257 10.1192 13.4713 10.0986 13.5196 10.0955L13.606 11.426ZM14.3327 11.0977L15.274 12.042C15.6973 11.6201 15.953 11.0588 15.9936 10.4625L14.6633 10.372L13.3331 10.2815C13.3363 10.2331 13.3571 10.1876 13.3914 10.1534L14.3327 11.0977ZM14.6633 10.372L15.9936 10.4622C15.9998 10.3699 15.9993 10.2819 15.9993 10.252H14.666H13.3326C13.3326 10.2621 13.3326 10.2692 13.3326 10.276C13.3326 10.2825 13.3325 10.2868 13.3325 10.2898C13.3324 10.2928 13.3324 10.2935 13.3324 10.2925C13.3325 10.2915 13.3326 10.2878 13.333 10.2818L14.6633 10.372ZM14.666 10.252H15.9993V7.74801H14.666H13.3326V10.252H14.666ZM14.666 7.74801H15.9993C15.9993 7.71813 15.9998 7.63011 15.9936 7.53782L14.6633 7.62801L13.333 7.7182C13.3326 7.71225 13.3325 7.70851 13.3324 7.70752C13.3324 7.7065 13.3324 7.70721 13.3325 7.7102C13.3325 7.71321 13.3326 7.71755 13.3326 7.72404C13.3326 7.7308 13.3326 7.73792 13.3326 7.74801H14.666ZM14.6633 7.62801L15.9936 7.53753C15.953 6.94149 15.6975 6.38042 15.2746 5.95852L14.333 6.90252L13.3913 7.84652C13.357 7.81231 13.3363 7.76682 13.333 7.71849L14.6633 7.62801ZM14.333 6.90252L15.2746 5.95852C14.8516 5.53662 14.2899 5.28256 13.6938 5.24352L13.6066 6.57401L13.5195 7.90449C13.4712 7.90133 13.4256 7.88073 13.3913 7.84652L14.333 6.90252ZM11.7246 9.64801V10.9813C12.8554 10.9813 13.678 10.0415 13.678 9.00068H12.3446H11.0113C11.0113 8.67583 11.2778 8.31468 11.7246 8.31468V9.64801ZM12.3446 9.00068H13.678C13.678 7.95983 12.8554 7.02001 11.7246 7.02001V8.35334V9.68668C11.2778 9.68668 11.0113 9.32552 11.0113 9.00068H12.3446ZM11.7246 8.35334V7.02001C10.592 7.02001 9.77197 7.96174 9.77197 9.00068H11.1053H12.4386C12.4386 9.32361 12.1733 9.68668 11.7246 9.68668V8.35334ZM11.1053 9.00068H9.77197C9.77197 10.0387 10.5904 10.9813 11.7246 10.9813V9.64801V8.31468C12.1735 8.31468 12.4386 8.67869 12.4386 9.00068H11.1053Z" fill="#1195FF" mask="url(#path-1-inside-1_232_78)"/>
<path d="M6.91925 4.00034H8.27765C9.32615 4.00034 10.133 4.00104 10.7718 4.06284L11.0355 4.09311C11.6292 4.1735 12.0447 4.32175 12.3646 4.58432L12.4964 4.70346C12.5669 4.77457 12.6288 4.85147 12.6859 4.93295H11.8675C9.70016 4.93295 7.77179 6.66039 7.77179 9.00034C7.77197 11.3401 9.70063 13.0665 11.8675 13.0667H12.6859C12.6524 13.1145 12.6184 13.1614 12.5804 13.2054L12.4964 13.2953V13.2962C12.2022 13.5929 11.824 13.7669 11.2796 13.8675L11.0355 13.9066C10.3585 13.9984 9.47659 14.0003 8.27765 14.0003H6.91925C5.87075 14.0003 5.06394 13.9986 4.42511 13.9369L4.16144 13.9066H4.16046C3.56689 13.8262 3.15207 13.6782 2.83234 13.4154L2.7005 13.2962V13.2953L2.58136 13.1624C2.35791 12.8864 2.21715 12.5386 2.13116 12.0667L2.09308 11.8197C2.00165 11.1351 2.00031 10.244 2.00031 9.03647V8.96323C2.00031 7.90675 2.00134 7.09229 2.06281 6.4476L2.09308 6.181C2.18452 5.49577 2.36275 5.04508 2.69952 4.70346C2.99403 4.40695 3.37241 4.23237 3.91632 4.13217L4.15948 4.09311H4.16046C4.83816 4.00126 5.72093 4.00034 6.91925 4.00034ZM3.73956 5.25717C3.62648 5.25767 3.51425 5.27483 3.40656 5.30795L3.30011 5.34702C3.19569 5.39079 3.09797 5.44892 3.01105 5.52084L2.92804 5.59799C2.84832 5.67843 2.78061 5.76973 2.72784 5.86948L2.67999 5.97202C2.62322 6.11085 2.59475 6.25953 2.59503 6.40952L2.60089 6.5267C2.65925 7.10356 3.14258 7.56178 3.74249 7.56186H6.31378C6.91367 7.56162 7.39802 7.10397 7.45636 6.5267L7.46222 6.40952C7.46257 6.14329 7.37005 5.8867 7.20343 5.68198L7.12823 5.59702L7.04327 5.52084C6.86852 5.37665 6.65535 5.28638 6.42999 5.26303L6.31573 5.25717H3.73956Z" fill="#1195FF" stroke="#1195FF" stroke-width="1.33333"/>
<mask id="path-4-inside-2_232_78" fill="white">
<path d="M5.18469 2.68266L6.49003 1.72066C6.8307 1.46894 7.24311 1.3331 7.66669 1.3331C8.09027 1.3331 8.50269 1.46894 8.84336 1.72066L10.156 2.688C9.60669 2.66666 8.99336 2.66666 8.32203 2.66666H6.87536C6.26069 2.66666 5.69603 2.66666 5.18469 2.68266Z"/>
</mask>
<path d="M5.18469 2.68266L6.49003 1.72066C6.8307 1.46894 7.24311 1.3331 7.66669 1.3331C8.09027 1.3331 8.50269 1.46894 8.84336 1.72066L10.156 2.688C9.60669 2.66666 8.99336 2.66666 8.32203 2.66666H6.87536C6.26069 2.66666 5.69603 2.66666 5.18469 2.68266Z" fill="#1195FF"/>
<path d="M5.18469 2.68266L4.39367 1.60932L0.947266 4.14924L5.22639 4.01534L5.18469 2.68266ZM6.49003 1.72066L7.28105 2.794L7.28239 2.79301L6.49003 1.72066ZM8.84336 1.72066L8.05099 2.79301L8.05237 2.79403L8.84336 1.72066ZM10.156 2.688L10.1043 4.02032L14.44 4.1887L10.947 1.61463L10.156 2.688ZM5.18469 2.68266L5.97572 3.756L7.28105 2.794L6.49003 1.72066L5.699 0.647324L4.39367 1.60932L5.18469 2.68266ZM6.49003 1.72066L7.28239 2.79301C7.39366 2.7108 7.52835 2.66643 7.66669 2.66643V1.3331V-0.000234008C6.95787 -0.000234008 6.26773 0.227079 5.69766 0.648314L6.49003 1.72066ZM7.66669 1.3331V2.66643C7.80503 2.66643 7.93973 2.7108 8.05099 2.79301L8.84336 1.72066L9.63573 0.648314C9.06565 0.227079 8.37551 -0.000234008 7.66669 -0.000234008V1.3331ZM8.84336 1.72066L8.05237 2.79403L9.36504 3.76136L10.156 2.688L10.947 1.61463L9.63435 0.647296L8.84336 1.72066ZM10.156 2.688L10.2078 1.35567C9.62743 1.33313 8.98637 1.33333 8.32203 1.33333V2.66666V4C9.00035 4 9.58595 4.0002 10.1043 4.02032L10.156 2.688ZM8.32203 2.66666V1.33333H6.87536V2.66666V4H8.32203V2.66666ZM6.87536 2.66666V1.33333C6.26613 1.33333 5.67926 1.3332 5.14299 1.34998L5.18469 2.68266L5.22639 4.01534C5.71279 4.00012 6.25525 4 6.87536 4V2.66666Z" fill="#1195FF" mask="url(#path-4-inside-2_232_78)"/>
</svg>
