<svg width="16" height="16" viewBox="0 0 16 16" fill="none" xmlns="http://www.w3.org/2000/svg">
<path fill-rule="evenodd" clip-rule="evenodd" d="M13.6067 6.57334C13.5678 6.57154 13.5289 6.57087 13.49 6.57134H11.8667C10.5387 6.57134 9.40134 7.62534 9.40134 9.00001C9.40134 10.3747 10.5387 11.4287 11.8673 11.4287H13.4893C13.5302 11.4291 13.5691 11.4282 13.606 11.426C13.88 11.4082 14.1383 11.2916 14.3327 11.0977C14.5272 10.9038 14.6447 10.646 14.6633 10.372C14.666 10.3327 14.666 10.2907 14.666 10.252V7.74801C14.666 7.70934 14.666 7.66734 14.6633 7.62801C14.6447 7.35415 14.5273 7.09637 14.333 6.90252C14.1387 6.70867 13.8806 6.59194 13.6067 6.57401M11.7247 9.64801C12.0667 9.64801 12.3447 9.35868 12.3447 9.00068C12.3447 8.64268 12.0667 8.35334 11.7247 8.35334C11.3827 8.35334 11.1053 8.64268 11.1053 9.00068C11.1053 9.35868 11.382 9.64801 11.7247 9.64801Z" fill="#3F3F3F"/>
<path fill-rule="evenodd" clip-rule="evenodd" d="M13.4893 12.4C13.5117 12.3992 13.5339 12.4037 13.5542 12.4131C13.5745 12.4224 13.5923 12.4365 13.6061 12.454C13.62 12.4715 13.6296 12.492 13.6341 12.5139C13.6386 12.5358 13.6379 12.5584 13.632 12.58C13.5027 13.0413 13.298 13.4347 12.9693 13.7653C12.4887 14.25 11.8787 14.4653 11.1253 14.5673C10.3933 14.6667 9.45868 14.6667 8.27734 14.6667H6.91934C5.73868 14.6667 4.80334 14.6667 4.07134 14.5673C3.31801 14.4653 2.70801 14.25 2.22734 13.7653C1.74668 13.282 1.53334 12.6667 1.43201 11.908C1.33334 11.1693 1.33334 10.2267 1.33334 9.03668V8.96334C1.33334 7.77334 1.33334 6.83001 1.43201 6.09268C1.53334 5.33334 1.74668 4.72001 2.22668 4.23401C2.70734 3.75001 3.31734 3.53401 4.07068 3.43268C4.80334 3.33334 5.73868 3.33334 6.91934 3.33334H8.27734C9.45801 3.33334 10.3933 3.33334 11.1253 3.43268C11.8787 3.53468 12.4887 3.75001 12.9693 4.23401C13.298 4.56534 13.5027 4.95868 13.632 5.42068C13.6377 5.4422 13.6384 5.46477 13.6338 5.48657C13.6293 5.50838 13.6197 5.52881 13.6058 5.54624C13.5919 5.56368 13.5742 5.57762 13.554 5.58695C13.5337 5.59629 13.5116 5.60076 13.4893 5.60001H11.8673C10.0447 5.60001 8.43868 7.05134 8.43868 9.00001C8.43868 10.9487 10.0453 12.4 11.868 12.4H13.4893ZM3.74268 5.92401C3.6792 5.92427 3.61641 5.93703 3.55786 5.96157C3.49932 5.9861 3.44619 6.02192 3.40149 6.06699C3.3568 6.11206 3.32142 6.16549 3.29737 6.22423C3.27332 6.28297 3.26108 6.34587 3.26134 6.40934C3.26134 6.67801 3.47668 6.89534 3.74268 6.89534H6.31334C6.58001 6.89534 6.79534 6.67801 6.79534 6.40934C6.7957 6.28109 6.74514 6.15795 6.65476 6.06695C6.56439 5.97595 6.44159 5.92454 6.31334 5.92401H3.74268Z" fill="#3F3F3F"/>
<path d="M5.18466 2.68266L6.49 1.72066C6.83066 1.46894 7.24308 1.3331 7.66666 1.3331C8.09024 1.3331 8.50266 1.46894 8.84333 1.72066L10.156 2.688C9.60666 2.66666 8.99333 2.66666 8.322 2.66666H6.87533C6.26066 2.66666 5.696 2.66666 5.18466 2.68266Z" fill="#3F3F3F"/>
</svg>
