<svg width="16" height="16" viewBox="0 0 16 16" fill="none" xmlns="http://www.w3.org/2000/svg">
<path fill-rule="evenodd" clip-rule="evenodd" d="M13.6066 6.57334C13.5678 6.57154 13.5289 6.57087 13.49 6.57134H11.8666C10.5386 6.57134 9.40131 7.62534 9.40131 9.00001C9.40131 10.3747 10.5386 11.4287 11.8673 11.4287H13.4893C13.5302 11.4291 13.5691 11.4282 13.606 11.426C13.88 11.4082 14.1382 11.2916 14.3327 11.0977C14.5272 10.9038 14.6447 10.646 14.6633 10.372C14.666 10.3327 14.666 10.2907 14.666 10.252V7.74801C14.666 7.70934 14.666 7.66734 14.6633 7.62801C14.6447 7.35415 14.5273 7.09637 14.333 6.90252C14.1386 6.70867 13.8805 6.59194 13.6066 6.57401M11.7246 9.64801C12.0666 9.64801 12.3446 9.35868 12.3446 9.00068C12.3446 8.64268 12.0666 8.35334 11.7246 8.35334C11.3826 8.35334 11.1053 8.64268 11.1053 9.00068C11.1053 9.35868 11.382 9.64801 11.7246 9.64801Z" fill="#5D7285"/>
<path fill-rule="evenodd" clip-rule="evenodd" d="M13.4893 12.4C13.5116 12.3992 13.5339 12.4037 13.5541 12.4131C13.5744 12.4224 13.5922 12.4365 13.6061 12.454C13.62 12.4715 13.6296 12.492 13.6341 12.5139C13.6386 12.5358 13.6378 12.5584 13.632 12.58C13.5026 13.0413 13.298 13.4347 12.9693 13.7653C12.4886 14.25 11.8786 14.4653 11.1253 14.5673C10.3933 14.6667 9.45865 14.6667 8.27731 14.6667H6.91931C5.73865 14.6667 4.80331 14.6667 4.07131 14.5673C3.31798 14.4653 2.70798 14.25 2.22731 13.7653C1.74665 13.282 1.53331 12.6667 1.43198 11.908C1.33331 11.1693 1.33331 10.2267 1.33331 9.03668V8.96334C1.33331 7.77334 1.33331 6.83001 1.43198 6.09268C1.53331 5.33334 1.74665 4.72001 2.22665 4.23401C2.70731 3.75001 3.31731 3.53401 4.07065 3.43268C4.80331 3.33334 5.73865 3.33334 6.91931 3.33334H8.27731C9.45798 3.33334 10.3933 3.33334 11.1253 3.43268C11.8786 3.53468 12.4886 3.75001 12.9693 4.23401C13.298 4.56534 13.5026 4.95868 13.632 5.42068C13.6377 5.4422 13.6383 5.46477 13.6338 5.48657C13.6292 5.50838 13.6196 5.52881 13.6058 5.54624C13.5919 5.56368 13.5742 5.57762 13.5539 5.58695C13.5337 5.59629 13.5116 5.60076 13.4893 5.60001H11.8673C10.0446 5.60001 8.43865 7.05134 8.43865 9.00001C8.43865 10.9487 10.0453 12.4 11.868 12.4H13.4893ZM3.74265 5.92401C3.67917 5.92427 3.61637 5.93703 3.55783 5.96157C3.49929 5.9861 3.44616 6.02192 3.40146 6.06699C3.35677 6.11206 3.32139 6.16549 3.29734 6.22423C3.27329 6.28297 3.26105 6.34587 3.26131 6.40934C3.26131 6.67801 3.47665 6.89534 3.74265 6.89534H6.31331C6.57998 6.89534 6.79531 6.67801 6.79531 6.40934C6.79567 6.28109 6.74511 6.15795 6.65473 6.06695C6.56436 5.97595 6.44156 5.92454 6.31331 5.92401H3.74265Z" fill="#5D7285"/>
<path d="M5.18469 2.68266L6.49003 1.72066C6.8307 1.46894 7.24311 1.3331 7.66669 1.3331C8.09027 1.3331 8.50269 1.46894 8.84336 1.72066L10.156 2.688C9.60669 2.66666 8.99336 2.66666 8.32203 2.66666H6.87536C6.26069 2.66666 5.69603 2.66666 5.18469 2.68266Z" fill="#5D7285"/>
</svg>
